{
  "accessors": [
    {
      "bufferView": 2,
      "componentType": 5126,
      "count": 4,
      "max": [
        12.092663764953613,
        12.190644264221191,
        72.607536315917969
      ],
      "min": [
        -18.268682479858398,
        -14.381048202514648,
        5.1074566841125488
      ],
      "type": "VEC3"
    },
    {
      "bufferView": 2,
      "byteOffset": 48,
      "componentType": 5126,
      "count": 4,
      "max": [
        0.60075110197067261,
        -0.78997993469238281,
        0.1225961297750473
      ],
      "min": [
        0.60075110197067261,
        -0.78997999429702759,
        0.12259610742330551
      ],
      "type": "VEC3"
    },
    {
      "bufferView": 3,
      "componentType": 5126,
      "count": 4,
      "max": [
        -0.79652851819992065,
        -0.60455322265625,
        0.0075902333483099937,
        1
      ],
      "min": [
        -0.79652857780456543,
        -0.60455328226089478,
        0.0075901211239397526,
        1
      ],
      "type": "VEC4"
    },
    {
      "bufferView": 1,
      "componentType": 5126,
      "count": 4,
      "max": [
        0.98252964019775391,
        0.98252964019775391
      ],
      "min": [
        0.017470361664891243,
        0.017470359802246094
      ],
      "type": "VEC2"
    },
    {
      "bufferView": 0,
      "componentType": 5125,
      "count": 6,
      "max": [
        3
      ],
      "min": [
        0
      ],
      "type": "SCALAR"
    },
    {
      "bufferView": 2,
      "byteOffset": 96,
      "componentType": 5126,
      "count": 4,
      "max": [
        -2.9905340671539307,
        4.3505287170410156,
        74.658210754394531
      ],
      "min": [
        -7.8897585868835449,
        0.58762359619140625,
        73.764373779296875
      ],
      "type": "VEC3"
    },
    {
      "bufferView": 2,
      "byteOffset": 144,
      "componentType": 5126,
      "count": 4,
      "max": [
        -0.60075110197067261,
        0.78998005390167236,
        -0.12259577959775925
      ],
      "min": [
        -0.60075116157531738,
        0.78997999429702759,
        -0.12259583175182343
      ],
      "type": "VEC3"
    },
    {
      "bufferView": 3,
      "byteOffset": 64,
      "componentType": 5126,
      "count": 4,
      "max": [
        0.067099064588546753,
        -0.10298525542020798,
        -0.9924170970916748,
        1
      ],
      "min": [
        0.06709878146648407,
        -0.10298552364110947,
        -0.99241715669631958,
        1
      ],
      "type": "VEC4"
    },
    {
      "bufferView": 0,
      "byteOffset": 24,
      "componentType": 5125,
      "count": 6,
      "max": [
        3
      ],
      "min": [
        0
      ],
      "type": "SCALAR"
    },
    {
      "bufferView": 2,
      "byteOffset": 192,
      "componentType": 5126,
      "count": 166,
      "max": [
        9.6880893707275391,
        13.103565216064453,
        60.356033325195312
      ],
      "min": [
        8.3121747970581055,
        11.666572570800781,
        56.843177795410156
      ],
      "type": "VEC3"
    },
    {
      "bufferView": 2,
      "byteOffset": 2184,
      "componentType": 5126,
      "count": 166,
      "max": [
        0.99545729160308838,
        0.99415761232376099,
        0.99551934003829956
      ],
      "min": [
        -0.99762248992919922,
        -0.99347347021102905,
        -0.99568432569503784
      ],
      "type": "VEC3"
    },
    {
      "bufferView": 3,
      "byteOffset": 128,
      "componentType": 5126,
      "count": 166,
      "max": [
        0.85056453943252563,
        0.71139168739318848,
        0.99627184867858887,
        1
      ],
      "min": [
        -0.87410807609558105,
        -0.67810678482055664,
        -0.99739664793014526,
        1
      ],
      "type": "VEC4"
    },
    {
      "bufferView": 0,
      "byteOffset": 48,
      "componentType": 5125,
      "count": 612,
      "max": [
        165
      ],
      "min": [
        0
      ],
      "type": "SCALAR"
    },
    {
      "bufferView": 2,
      "byteOffset": 4176,
      "componentType": 5126,
      "count": 441,
      "max": [
        497.5196533203125,
        497.5196533203125,
        0
      ],
      "min": [
        -497.5196533203125,
        -497.5196533203125,
        0
      ],
      "type": "VEC3"
    },
    {
      "bufferView": 2,
      "byteOffset": 9468,
      "componentType": 5126,
      "count": 441,
      "max": [
        0,
        -0,
        1
      ],
      "min": [
        0,
        -0,
        1
      ],
      "type": "VEC3"
    },
    {
      "bufferView": 3,
      "byteOffset": 2784,
      "componentType": 5126,
      "count": 441,
      "max": [
        1,
        0,
        0,
        1
      ],
      "min": [
        1,
        0,
        0,
        1
      ],
      "type": "VEC4"
    },
    {
      "bufferView": 0,
      "byteOffset": 2496,
      "componentType": 5125,
      "count": 2400,
      "max": [
        440
      ],
      "min": [
        0
      ],
      "type": "SCALAR"
    },
    {
      "bufferView": 2,
      "byteOffset": 14760,
      "componentType": 5126,
      "count": 375,
      "max": [
        13.238819122314453,
        14.89300537109375,
        76.89544677734375
      ],
      "min": [
        -20.782613754272461,
        -15.244050025939941,
        3.2547817230224609
      ],
      "type": "VEC3"
    },
    {
      "bufferView": 2,
      "byteOffset": 19260,
      "componentType": 5126,
      "count": 375,
      "max": [
        0.99634474515914917,
        0.99403584003448486,
        0.99902486801147461
      ],
      "min": [
        -0.99743819236755371,
        -0.99369746446609497,
        -0.99897223711013794
      ],
      "type": "VEC3"
    },
    {
      "bufferView": 3,
      "byteOffset": 9840,
      "componentType": 5126,
      "count": 375,
      "max": [
        0.86977934837341309,
        0.71319139003753662,
        0.99721425771713257,
        1
      ],
      "min": [
        -0.87508642673492432,
        -0.78998851776123047,
        -0.99831289052963257,
        -1
      ],
      "type": "VEC4"
    },
    {
      "bufferView": 0,
      "byteOffset": 12096,
      "componentType": 5125,
      "count": 1260,
      "max": [
        374
      ],
      "min": [
        0
      ],
      "type": "SCALAR"
    },
    {
      "bufferView": 2,
      "byteOffset": 23760,
      "componentType": 5126,
      "count": 216,
      "max": [
        0.8681449294090271,
        9.195098876953125,
        76.723503112792969
      ],
      "min": [
        -14.389213562011719,
        -4.2117071151733398,
        62.472488403320312
      ],
      "type": "VEC3"
    },
    {
      "bufferView": 2,
      "byteOffset": 26352,
      "componentType": 5126,
      "count": 216,
      "max": [
        0.99448180198669434,
        0.99415713548660278,
        0.99236416816711426
      ],
      "min": [
        -0.99448180198669434,
        -0.99415749311447144,
        -0.99236500263214111
      ],
      "type": "VEC3"
    },
    {
      "bufferView": 3,
      "byteOffset": 15840,
      "componentType": 5126,
      "count": 216,
      "max": [
        0.99788999557495117,
        0.99142241477966309,
        0.99187809228897095,
        1
      ],
      "min": [
        -0.99788945913314819,
        -0.99142241477966309,
        -0.99187809228897095,
        1
      ],
      "type": "VEC4"
    },
    {
      "bufferView": 0,
      "byteOffset": 17136,
      "componentType": 5125,
      "count": 600,
      "max": [
        215
      ],
      "min": [
        0
      ],
      "type": "SCALAR"
    }
  ],
  "asset": {
    "extras": {
      "author": "BenGreen (https://sketchfab.com/antonystix)",
      "license": "CC-BY-4.0 (http://creativecommons.org/licenses/by/4.0/)",
      "source": "https://sketchfab.com/models/36e8a127e2b9481ea7b4ed4187f2b765",
      "title": "Smartphone | Low Poly | Free Download"
    },
    "generator": "Sketchfab-3.20.7",
    "version": "2.0"
  },
  "bufferViews": [
    {
      "buffer": 0,
      "byteLength": 19536,
      "byteOffset": 0,
      "name": "floatBufferViews",
      "target": 34963
    },
    {
      "buffer": 0,
      "byteLength": 32,
      "byteOffset": 19536,
      "byteStride": 8,
      "name": "floatBufferViews",
      "target": 34962
    },
    {
      "buffer": 0,
      "byteLength": 28944,
      "byteOffset": 19568,
      "byteStride": 12,
      "name": "floatBufferViews",
      "target": 34962
    },
    {
      "buffer": 0,
      "byteLength": 19296,
      "byteOffset": 48512,
      "byteStride": 16,
      "name": "floatBufferViews",
      "target": 34962
    }
  ],
  "buffers": [
    {
      "byteLength": 67808,
      "uri": "scene.bin"
    }
  ],
  "extensionsRequired": [
    "KHR_materials_pbrSpecularGlossiness"
  ],
  "extensionsUsed": [
    "KHR_materials_pbrSpecularGlossiness"
  ],
  "images": [
    {
      "uri": "textures/Android_7.1_specularGlossiness.jpg"
    }
  ],
  "materials": [
    {
      "doubleSided": true,
      "emissiveFactor": [
        0,
        0,
        0
      ],
      "extensions": {
        "KHR_materials_pbrSpecularGlossiness": {
          "diffuseFactor": [
            0,
            0,
            0,
            1
          ],
          "glossinessFactor": 0,
          "specularFactor": [
            1,
            1,
            1
          ],
          "specularGlossinessTexture": {
            "index": 0,
            "texCoord": 0
          }
        }
      },
      "name": "Android_7.1"
    },
    {
      "doubleSided": true,
      "emissiveFactor": [
        0,
        0,
        0
      ],
      "extensions": {
        "KHR_materials_pbrSpecularGlossiness": {
          "diffuseFactor": [
            0.078151723899999997,
            0.0568786903,
            0.0568786903,
            1
          ],
          "glossinessFactor": 0.40000000000000002,
          "specularFactor": [
            0,
            0,
            0
          ]
        }
      },
      "name": "Audio"
    },
    {
      "doubleSided": true,
      "emissiveFactor": [
        0,
        0,
        0
      ],
      "extensions": {
        "KHR_materials_pbrSpecularGlossiness": {
          "diffuseFactor": [
            1,
            1,
            1,
            1
          ],
          "glossinessFactor": 0.40000000000000002,
          "specularFactor": [
            0,
            0,
            0
          ]
        }
      },
      "name": "But_Smart"
    },
    {
      "doubleSided": true,
      "emissiveFactor": [
        0,
        0,
        0
      ],
      "extensions": {
        "KHR_materials_pbrSpecularGlossiness": {
          "diffuseFactor": [
            0.88586128050000001,
            0.88586128050000001,
            0.88586128050000001,
            1
          ],
          "glossinessFactor": 0.40000000000000002,
          "specularFactor": [
            0,
            0,
            0
          ]
        }
      },
      "name": "Smartphone"
    },
    {
      "doubleSided": true,
      "emissiveFactor": [
        0,
        0,
        0
      ],
      "extensions": {
        "KHR_materials_pbrSpecularGlossiness": {
          "diffuseFactor": [
            0,
            0,
            0,
            1
          ],
          "glossinessFactor": 0.40000000000000002,
          "specularFactor": [
            0,
            0,
            0
          ]
        }
      },
      "name": "default"
    }
  ],
  "meshes": [
    {
      "primitives": [
        {
          "attributes": {
            "NORMAL": 1,
            "POSITION": 0,
            "TANGENT": 2,
            "TEXCOORD_0": 3
          },
          "indices": 4,
          "material": 0,
          "mode": 4
        }
      ]
    },
    {
      "primitives": [
        {
          "attributes": {
            "NORMAL": 6,
            "POSITION": 5,
            "TANGENT": 7
          },
          "indices": 8,
          "material": 1,
          "mode": 4
        }
      ]
    },
    {
      "primitives": [
        {
          "attributes": {
            "NORMAL": 10,
            "POSITION": 9,
            "TANGENT": 11
          },
          "indices": 12,
          "material": 2,
          "mode": 4
        }
      ]
    },
    {
      "primitives": [
        {
          "attributes": {
            "NORMAL": 14,
            "POSITION": 13,
            "TANGENT": 15
          },
          "indices": 16,
          "material": 4,
          "mode": 4
        }
      ]
    },
    {
      "primitives": [
        {
          "attributes": {
            "NORMAL": 18,
            "POSITION": 17,
            "TANGENT": 19
          },
          "indices": 20,
          "material": 3,
          "mode": 4
        }
      ]
    },
    {
      "primitives": [
        {
          "attributes": {
            "NORMAL": 22,
            "POSITION": 21,
            "TANGENT": 23
          },
          "indices": 24,
          "material": 4,
          "mode": 4
        }
      ]
    }
  ],
  "nodes": [
    {
      "children": [
        1
      ],
      "name": "RootNode (gltf orientation matrix)",
      "rotation": [
        -0.70710678118654746,
        -0,
        -0,
        0.70710678118654757
      ]
    },
    {
      "children": [
        2
      ],
      "name": "RootNode (model correction matrix)"
    },
    {
      "children": [
        3,
        4,
        5,
        6,
        7,
        8
      ],
      "name": "5754c6a4dce942aa90793c09e21aea35.obj.cleaner.materialmerger.gles"
    },
    {
      "mesh": 0,
      "name": ""
    },
    {
      "mesh": 1,
      "name": ""
    },
    {
      "mesh": 2,
      "name": ""
    },
    {
      "mesh": 3,
      "name": ""
    },
    {
      "mesh": 4,
      "name": ""
    },
    {
      "mesh": 5,
      "name": ""
    }
  ],
  "samplers": [
    {
      "magFilter": 9729,
      "minFilter": 9987,
      "wrapS": 10497,
      "wrapT": 10497
    }
  ],
  "scene": 0,
  "scenes": [
    {
      "name": "OSG_Scene",
      "nodes": [
        0
      ]
    }
  ],
  "textures": [
    {
      "sampler": 0,
      "source": 0
    }
  ]
}

